<svg width="136" height="50" viewBox="0 0 136 50" fill="none" xmlns="http://www.w3.org/2000/svg">
<rect width="136" height="50" rx="4" fill="#FC4754" fill-opacity="0.91"/>
<path d="M35.4922 29.4312C35.055 30.0011 34.4491 30.4328 33.6743 30.7261C32.8996 31.0194 32.0197 31.166 31.0347 31.166C30.022 31.166 29.1255 30.9364 28.3452 30.4771C27.5649 30.0177 26.9618 29.362 26.5356 28.5098C26.1151 27.652 25.8965 26.6532 25.8799 25.5132V24.5669C25.8799 22.7407 26.3171 21.3158 27.1914 20.292C28.0658 19.2627 29.286 18.748 30.8521 18.748C32.1968 18.748 33.2648 19.0801 34.0562 19.7441C34.8475 20.4082 35.3234 21.3656 35.4839 22.6162H33.4253C33.1929 21.1608 32.349 20.4331 30.8936 20.4331C29.9528 20.4331 29.2362 20.7734 28.7437 21.4541C28.2567 22.1292 28.0049 23.1226 27.9883 24.4341V25.3638C27.9883 26.6698 28.2622 27.6852 28.8101 28.4102C29.3634 29.1296 30.1299 29.4893 31.1094 29.4893C32.1829 29.4893 32.9466 29.2458 33.4004 28.7588V26.3931H30.9102V24.7993H35.4922V29.4312ZM41.5601 31.166C40.2817 31.166 39.2441 30.7648 38.4473 29.9624C37.6559 29.1545 37.2603 28.0809 37.2603 26.7417V26.4927C37.2603 25.5962 37.4318 24.7965 37.7749 24.0938C38.1235 23.3854 38.6105 22.8348 39.2358 22.4419C39.8612 22.049 40.5584 21.8525 41.3276 21.8525C42.5506 21.8525 43.4941 22.2427 44.1582 23.0229C44.8278 23.8032 45.1626 24.9072 45.1626 26.335V27.1484H39.2939C39.3548 27.89 39.6011 28.4766 40.0327 28.9082C40.4699 29.3398 41.0177 29.5557 41.6763 29.5557C42.6004 29.5557 43.353 29.1821 43.9341 28.4351L45.0215 29.4727C44.6618 30.0094 44.1803 30.4272 43.5771 30.7261C42.9795 31.0194 42.3071 31.166 41.5601 31.166ZM41.3193 23.4712C40.766 23.4712 40.3177 23.6649 39.9746 24.0522C39.637 24.4396 39.4212 24.9792 39.3271 25.6709H43.1704V25.5215C43.1261 24.8464 42.9463 24.3372 42.6309 23.9941C42.3154 23.6455 41.8783 23.4712 41.3193 23.4712ZM49.2632 19.8354V22.0186H50.8486V23.5127H49.2632V28.5264C49.2632 28.8695 49.3296 29.1185 49.4624 29.2734C49.6007 29.4229 49.8442 29.4976 50.1929 29.4976C50.4253 29.4976 50.6605 29.4699 50.8984 29.4146V30.9751C50.4391 31.1024 49.9964 31.166 49.5703 31.166C48.0208 31.166 47.2461 30.311 47.2461 28.6011V23.5127H45.7686V22.0186H47.2461V19.8354H49.2632ZM63.1421 27.8872C63.1421 27.356 62.9539 26.9465 62.5776 26.6587C62.2069 26.3709 61.5345 26.0804 60.5605 25.7871C59.5866 25.4938 58.8118 25.1673 58.2363 24.8076C57.1351 24.1159 56.5845 23.2139 56.5845 22.1016C56.5845 21.1276 56.9801 20.3252 57.7715 19.6943C58.5684 19.0635 59.6004 18.748 60.8677 18.748C61.7088 18.748 62.4587 18.903 63.1172 19.2129C63.7757 19.5228 64.2931 19.9655 64.6694 20.541C65.0457 21.111 65.2339 21.7446 65.2339 22.4419H63.1421C63.1421 21.811 62.9429 21.3185 62.5444 20.9644C62.1515 20.6047 61.5871 20.4248 60.8511 20.4248C60.1649 20.4248 59.6309 20.5715 59.249 20.8647C58.8727 21.158 58.6846 21.5675 58.6846 22.0933C58.6846 22.536 58.8893 22.9067 59.2988 23.2056C59.7083 23.4989 60.3835 23.7866 61.3242 24.0688C62.265 24.3455 63.0203 24.6637 63.5903 25.0234C64.1603 25.3776 64.5781 25.7871 64.8438 26.252C65.1094 26.7113 65.2422 27.2508 65.2422 27.8706C65.2422 28.8778 64.8548 29.6802 64.0801 30.2778C63.3109 30.87 62.265 31.166 60.9424 31.166C60.068 31.166 59.2629 31.0055 58.5269 30.6846C57.7964 30.3581 57.2264 29.9098 56.8169 29.3398C56.4129 28.7699 56.2109 28.1058 56.2109 27.3477H58.311C58.311 28.0339 58.5379 28.5651 58.9917 28.9414C59.4455 29.3177 60.0957 29.5059 60.9424 29.5059C61.6729 29.5059 62.2207 29.3592 62.5859 29.0659C62.9567 28.7671 63.1421 28.3742 63.1421 27.8872ZM69.4175 19.8354V22.0186H71.0029V23.5127H69.4175V28.5264C69.4175 28.8695 69.4839 29.1185 69.6167 29.2734C69.755 29.4229 69.9985 29.4976 70.3472 29.4976C70.5796 29.4976 70.8148 29.4699 71.0527 29.4146V30.9751C70.5934 31.1024 70.1507 31.166 69.7246 31.166C68.1751 31.166 67.4004 30.311 67.4004 28.6011V23.5127H65.9229V22.0186H67.4004V19.8354H69.4175ZM77.9175 31C77.8289 30.8285 77.7515 30.549 77.6851 30.1616C77.0431 30.8312 76.2573 31.166 75.3276 31.166C74.4256 31.166 73.6896 30.9087 73.1196 30.394C72.5496 29.8794 72.2646 29.243 72.2646 28.4849C72.2646 27.5275 72.6188 26.7943 73.3271 26.2852C74.041 25.7705 75.0592 25.5132 76.3818 25.5132H77.6187V24.9238C77.6187 24.459 77.4886 24.0882 77.2285 23.8115C76.9684 23.5293 76.5728 23.3882 76.0415 23.3882C75.5822 23.3882 75.2059 23.5044 74.9126 23.7368C74.6193 23.9637 74.4727 24.2542 74.4727 24.6084H72.4556C72.4556 24.1159 72.6188 23.6566 72.9453 23.2305C73.2718 22.7988 73.7145 22.4613 74.2734 22.2178C74.8379 21.9743 75.466 21.8525 76.1577 21.8525C77.2091 21.8525 78.0475 22.1182 78.6729 22.6494C79.2982 23.1751 79.6191 23.9167 79.6357 24.874V28.9248C79.6357 29.7327 79.7492 30.3774 79.9761 30.8589V31H77.9175ZM75.7012 29.5474C76.0996 29.5474 76.4731 29.4505 76.8218 29.2568C77.1759 29.0632 77.4416 28.8031 77.6187 28.4766V26.7832H76.5312C75.7842 26.7832 75.2225 26.9132 74.8462 27.1733C74.4699 27.4334 74.2817 27.8014 74.2817 28.2773C74.2817 28.6647 74.409 28.9746 74.6636 29.207C74.9237 29.4339 75.2695 29.5474 75.7012 29.5474ZM86.4507 23.8613C86.1851 23.8171 85.9111 23.7949 85.6289 23.7949C84.7048 23.7949 84.0822 24.1491 83.7612 24.8574V31H81.7441V22.0186H83.6699L83.7197 23.0229C84.2067 22.2427 84.8818 21.8525 85.7451 21.8525C86.0329 21.8525 86.2708 21.8913 86.459 21.9688L86.4507 23.8613ZM90.6675 19.8354V22.0186H92.2529V23.5127H90.6675V28.5264C90.6675 28.8695 90.7339 29.1185 90.8667 29.2734C91.005 29.4229 91.2485 29.4976 91.5972 29.4976C91.8296 29.4976 92.0648 29.4699 92.3027 29.4146V30.9751C91.8434 31.1024 91.4007 31.166 90.9746 31.166C89.4251 31.166 88.6504 30.311 88.6504 28.6011V23.5127H87.1729V22.0186H88.6504V19.8354H90.6675ZM97.7563 31.166C96.478 31.166 95.4404 30.7648 94.6436 29.9624C93.8522 29.1545 93.4565 28.0809 93.4565 26.7417V26.4927C93.4565 25.5962 93.6281 24.7965 93.9712 24.0938C94.3198 23.3854 94.8068 22.8348 95.4321 22.4419C96.0575 22.049 96.7547 21.8525 97.5239 21.8525C98.7469 21.8525 99.6904 22.2427 100.354 23.0229C101.024 23.8032 101.359 24.9072 101.359 26.335V27.1484H95.4902C95.5511 27.89 95.7974 28.4766 96.229 28.9082C96.6662 29.3398 97.214 29.5557 97.8726 29.5557C98.7967 29.5557 99.5493 29.1821 100.13 28.4351L101.218 29.4727C100.858 30.0094 100.377 30.4272 99.7734 30.7261C99.1758 31.0194 98.5034 31.166 97.7563 31.166ZM97.5156 23.4712C96.9622 23.4712 96.514 23.6649 96.1709 24.0522C95.8333 24.4396 95.6175 24.9792 95.5234 25.6709H99.3667V25.5215C99.3224 24.8464 99.1426 24.3372 98.8271 23.9941C98.5117 23.6455 98.0745 23.4712 97.5156 23.4712ZM102.554 26.4429C102.554 25.0594 102.875 23.9499 103.517 23.1143C104.159 22.2731 105.02 21.8525 106.099 21.8525C107.05 21.8525 107.82 22.1846 108.406 22.8486V18.25H110.423V31H108.597L108.498 30.0703C107.894 30.8008 107.089 31.166 106.082 31.166C105.031 31.166 104.178 30.7427 103.525 29.896C102.878 29.0493 102.554 27.8983 102.554 26.4429ZM104.571 26.6172C104.571 27.5303 104.746 28.2441 105.094 28.7588C105.448 29.2679 105.949 29.5225 106.597 29.5225C107.421 29.5225 108.024 29.1545 108.406 28.4185V24.5835C108.035 23.8641 107.438 23.5044 106.613 23.5044C105.96 23.5044 105.457 23.7645 105.103 24.2847C104.748 24.7993 104.571 25.5768 104.571 26.6172Z" fill="white"/>
</svg>
